HIERARCHY
ROOT root
{
	OFFSET 0.000000 0.000000 0.000000
	CHANNELS 6 Xposition Yposition Zposition Zrotation Yrotation Xrotation
	JOINT lhip
	{
		OFFSET 0.058581 -0.082280 -0.017664
		CHANNELS 3 Zrotation Yrotation Xrotation
		JOINT lknee
		{
			OFFSET 0.043451 -0.386469 0.008037
			CHANNELS 3 Zrotation Yrotation Xrotation
			JOINT lankle
			{
				OFFSET -0.014790 -0.426874 -0.037428
				CHANNELS 3 Zrotation Yrotation Xrotation
				JOINT ltoe
				{
					OFFSET 0.041054 -0.060286 0.122042
					CHANNELS 3 Zrotation Yrotation Xrotation
					End Site
					{
						OFFSET 0.000000 0.000000 0.000000
					}
				}
			}
		}
	}
	JOINT rhip
	{
		OFFSET -0.060310 -0.090513 -0.013543
		CHANNELS 3 Zrotation Yrotation Xrotation
		JOINT rknee
		{
			OFFSET -0.043257 -0.383688 -0.004843
			CHANNELS 3 Zrotation Yrotation Xrotation
			JOINT rankle
			{
				OFFSET 0.019056 -0.420046 -0.034562
				CHANNELS 3 Zrotation Yrotation Xrotation
				JOINT rtoe
				{
					OFFSET -0.034840 -0.062106 0.130323
					CHANNELS 3 Zrotation Yrotation Xrotation
					End Site
					{
						OFFSET 0.000000 0.000000 0.000000
					}
				}
			}
		}
	}
	JOINT lowerback
	{
		OFFSET 0.004439 0.124404 -0.038385
		CHANNELS 3 Zrotation Yrotation Xrotation
		JOINT upperback
		{
			OFFSET 0.004488 0.137956 0.026820
			CHANNELS 3 Zrotation Yrotation Xrotation
			JOINT chest
			{
				OFFSET -0.002265 0.056032 0.002855
				CHANNELS 3 Zrotation Yrotation Xrotation
				JOINT lowerneck
				{
					OFFSET -0.013390 0.211636 -0.033468
					CHANNELS 3 Zrotation Yrotation Xrotation
					JOINT upperneck
					{
						OFFSET 0.010113 0.088937 0.050410
						CHANNELS 3 Zrotation Yrotation Xrotation
						End Site
						{
							OFFSET 0.000000 0.000000 0.000000
						}
					}
				}
				JOINT lclavicle
				{
					OFFSET 0.071702 0.114000 -0.018898
					CHANNELS 3 Zrotation Yrotation Xrotation
					JOINT lshoulder
					{
						OFFSET 0.122921 0.045205 -0.019046
						CHANNELS 3 Zrotation Yrotation Xrotation
						JOINT lelbow
						{
							OFFSET 0.255332 -0.015649 -0.022946
							CHANNELS 3 Zrotation Yrotation Xrotation
							JOINT lwrist
							{
								OFFSET 0.265709 0.012698 -0.007375
								CHANNELS 3 Zrotation Yrotation Xrotation
								End Site
								{
									OFFSET 0.000000 0.000000 0.000000
								}
							}
						}
					}
				}
				JOINT rclavicle
				{
					OFFSET -0.082954 0.112472 -0.023707
					CHANNELS 3 Zrotation Yrotation Xrotation
					JOINT rshoulder
					{
						OFFSET -0.113228 0.046853 -0.008472
						CHANNELS 3 Zrotation Yrotation Xrotation
						JOINT relbow
						{
							OFFSET -0.260127 -0.014369 -0.031269
							CHANNELS 3 Zrotation Yrotation Xrotation
							JOINT rwrist
							{
								OFFSET -0.269108 0.006794 -0.006027
								CHANNELS 3 Zrotation Yrotation Xrotation
								End Site
								{
									OFFSET 0.000000 0.000000 0.000000
								}
							}
						}
					}
				}
			}
		}
	}
}
MOTION
Frames: 15
Frame Time: 0.033333
-0.688494 0.321717 0.992942 101.197927 8.766759 104.006825 -7.024112 4.416633 -12.911517 -0.171332 7.294997 -2.298622 10.095809 38.743427 -26.373357 0.000000 -0.000000 0.000000 -3.582275 -14.446261 -15.611730 -9.358745 -11.726600 -4.038867 -3.596811 -32.060819 33.156515 0.000000 -0.000000 0.000000 -0.568036 5.978042 -1.790709 12.353236 1.913910 -7.230233 5.956625 1.631996 -3.278049 3.146033 -19.572772 13.748422 0.926804 -1.916774 -5.264133 0.521958 14.062768 -14.539344 -5.575583 -12.017990 2.796767 3.379254 -2.650712 34.358171 -21.510639 31.310872 39.185405 2.885121 -11.651271 -20.636509 -4.888121 21.090532 -4.715108 -9.849436 -12.354510 36.734367 1.189665 -26.599089 58.050107 
-0.689216 0.333237 0.992504 106.215057 7.789301 102.244452 -8.118974 4.235778 -11.033958 -0.190028 4.424996 -0.645834 9.428710 38.011177 -27.519555 0.000000 -0.000000 0.000000 -2.237603 -14.557853 -18.462993 -8.702551 -12.127129 -6.095069 -4.354204 -32.775001 33.882277 0.000000 -0.000000 0.000000 -0.196508 4.889284 0.070845 12.743299 1.004999 -7.125725 6.428024 0.947905 -2.437442 1.365995 -20.687232 13.832647 1.409821 -1.840273 -6.807958 3.891219 10.224016 -15.556151 -0.936755 -15.275625 -0.282208 3.598395 -3.034182 36.614990 -19.577667 32.179968 42.841781 -0.451254 -8.883810 -22.674689 -9.299463 24.782679 -7.537104 -9.738251 -10.549216 39.166771 0.557745 -26.804968 59.604412 
-0.693659 0.342644 0.990841 110.356265 6.124508 100.950552 -9.894131 3.469858 -10.612486 -0.646491 2.373785 2.029239 9.392931 38.198935 -28.540654 0.000000 -0.000000 0.000000 -1.256544 -13.595690 -23.473072 -8.437402 -12.458211 -6.278575 -4.631877 -33.273850 36.512882 0.000000 -0.000000 0.000000 -0.704135 3.845460 2.462004 12.519473 0.744994 -8.512703 6.908037 0.353382 -1.017426 0.015047 -21.678459 13.584315 2.432990 -1.898835 -8.008219 7.758487 6.352131 -16.589076 3.751306 -18.425937 -3.647036 3.749057 -3.700965 37.487247 -17.007684 31.763218 44.638358 -3.926735 -5.942800 -23.955094 -13.052691 28.054042 -11.241035 -9.199854 -8.924727 39.617950 -0.655928 -25.730971 60.117481 
-0.694953 0.351031 0.987574 115.296253 4.711461 99.243911 -11.223315 2.048682 -10.275189 -0.988789 0.245810 6.583470 9.121414 38.540230 -30.505129 0.000000 -0.000000 0.000000 -0.251540 -12.511278 -27.263584 -7.889498 -11.718834 -6.825004 -3.655913 -32.713205 37.437702 0.000000 -0.000000 0.000000 -1.014125 2.725000 4.706638 12.755145 -0.299542 -8.443366 7.084516 -0.556705 -0.911946 -1.810466 -22.514160 14.180154 3.645594 -1.676737 -9.630346 11.558505 3.438329 -17.717947 8.162086 -22.008560 -7.894530 4.481057 -4.832034 36.222074 -17.565472 32.782303 44.092235 -7.327508 -3.487197 -24.595258 -16.449714 31.766743 -14.763385 -8.067479 -6.086513 39.154059 0.642607 -26.905702 58.411916 
-0.694156 0.358431 0.981978 120.270145 3.977506 97.568578 -11.625170 -0.143545 -10.230543 -1.719595 -1.108138 12.064121 8.801482 38.879219 -33.083312 0.000000 -0.000000 0.000000 0.854866 -10.808061 -30.359667 -7.293746 -11.269186 -7.595358 -2.130423 -31.254285 39.422482 0.000000 -0.000000 0.000000 -1.157717 1.552882 7.036861 13.337197 -1.314154 -9.042013 7.390143 -1.342029 -0.536712 -3.091811 -23.259147 14.440269 4.274457 -1.905807 -11.074403 15.438908 1.423561 -19.049471 11.883494 -26.109609 -12.793310 5.885730 -6.270390 33.570007 -18.912818 33.512019 41.801212 -10.404154 -1.339015 -25.677083 -19.949504 35.804334 -19.453229 -7.060084 -3.169391 37.129290 2.768957 -28.589721 56.081628 
-0.692137 0.366781 0.974250 124.978681 3.272007 96.318413 -12.012022 -1.928328 -9.784430 -2.446508 -1.566021 15.986965 8.250187 38.160629 -35.274391 0.000000 -0.000000 0.000000 1.484827 -9.244932 -33.661274 -6.400724 -10.586835 -7.457896 -0.449959 -29.510440 41.829095 0.000000 -0.000000 0.000000 -1.250765 0.496157 8.773063 13.697094 -1.972873 -9.378361 7.440126 -1.996284 -0.726485 -3.762453 -23.149887 13.745815 4.851243 -2.699305 -11.791909 19.217047 -0.572014 -20.216197 15.767323 -30.557811 -19.157579 8.049153 -7.760869 28.030390 -17.723042 33.476818 41.589732 -13.244449 0.441412 -26.092439 -23.096701 38.741702 -24.536195 -6.170573 0.560068 34.714157 3.324443 -29.385510 55.505634 
-0.686196 0.376496 0.966324 129.189545 2.621988 95.462902 -12.404984 -2.687339 -9.116691 -3.396803 -2.086486 18.879660 7.816698 37.193507 -36.993714 0.000000 -0.000000 0.000000 1.970181 -7.968434 -36.595134 -5.406538 -9.043698 -7.299769 2.292064 -27.740999 43.701888 0.000000 -0.000000 0.000000 -1.577788 -0.317083 9.982923 13.856555 -2.462371 -10.089452 7.566370 -2.155551 -0.866368 -4.505991 -23.461560 13.867637 5.782352 -3.110537 -12.053641 21.916824 -3.150628 -22.513743 20.995313 -35.658412 -25.679553 9.731442 -8.211637 21.463027 -17.559246 32.250763 37.314229 -15.673046 2.420038 -26.525360 -25.837563 40.003116 -28.238841 -4.678590 5.524670 31.225185 3.975677 -28.496154 51.515844 
-0.679650 0.387201 0.960256 132.804575 2.072174 94.627002 -13.048539 -3.454814 -8.502544 -4.050837 -2.225999 21.823544 7.452093 37.391170 -38.282103 0.000000 -0.000000 0.000000 2.385805 -7.019351 -39.206530 -3.848650 -7.889793 -6.061721 4.270104 -25.633016 43.807520 0.000000 -0.000000 0.000000 -1.806231 -0.530989 10.672293 13.873027 -2.602331 -9.253318 7.774254 -2.063997 -2.248480 -4.482875 -23.935305 12.580977 6.460277 -4.361943 -11.943332 24.002104 -6.470407 -24.453329 27.440889 -39.828692 -33.750635 11.374748 -9.573947 14.708688 -17.148997 30.738290 36.276841 -17.538570 5.070659 -26.292805 -28.781980 40.292441 -32.173502 -5.127297 9.028947 28.074200 5.035675 -28.101389 50.486852 
-0.670124 0.398880 0.956182 136.166143 1.723054 94.073417 -12.947406 -3.778106 -7.793369 -4.986882 -2.446214 24.468248 7.560872 36.582955 -38.467651 0.000000 -0.000000 0.000000 2.887581 -5.934691 -41.426139 -2.349531 -6.217781 -3.392819 5.121154 -24.644824 45.704441 0.000000 -0.000000 0.000000 -2.458594 -0.741086 10.762502 14.321774 -2.690855 -9.621691 8.042685 -2.243137 -2.211157 -5.199188 -24.312365 12.534642 7.134817 -4.461312 -12.214957 26.808376 -8.520947 -25.964262 33.184156 -43.039009 -41.734970 12.459262 -11.445952 9.645735 -14.556131 30.677557 34.799020 -19.945818 6.267385 -27.779770 -29.323468 42.656558 -35.409755 -4.851153 11.126911 27.056519 2.786089 -28.485255 51.451679 
-0.658497 0.412755 0.955053 139.708725 1.256750 93.254802 -12.540584 -4.339452 -6.880199 -7.002920 -2.927978 27.446395 7.800676 36.384638 -37.195787 0.000000 -0.000000 0.000000 3.135226 -5.731412 -42.690400 -0.370790 -5.779660 0.685038 4.317378 -23.626002 47.200097 0.000000 -0.000000 0.000000 -3.094571 -1.074146 11.247350 14.772088 -2.800384 -10.142502 8.568237 -2.511793 -2.245450 -5.091509 -25.167184 11.390570 7.104588 -5.189404 -11.893915 29.077104 -10.546097 -26.617405 38.912629 -43.730959 -47.976620 12.806904 -14.204128 7.069410 -10.285587 29.091546 36.472658 -21.179246 8.387630 -27.940150 -32.797349 43.406841 -39.604106 -4.493883 13.002265 25.381792 1.585331 -27.766965 51.650840 
-0.644620 0.429431 0.956768 143.762273 0.900059 92.320924 -11.997482 -4.340701 -5.481767 -8.806738 -3.424248 30.121195 8.182328 35.801664 -34.645403 0.000000 -0.000000 0.000000 3.278779 -6.378071 -42.675684 1.899355 -6.718801 5.740974 1.501232 -23.387869 47.113482 0.000000 -0.000000 0.000000 -3.644292 -1.421177 11.017893 15.233657 -3.234511 -10.155724 9.131534 -2.853219 -2.743195 -5.514970 -25.477326 11.726473 6.875376 -5.433343 -11.680499 30.587577 -13.381482 -26.925514 42.839063 -42.960177 -51.977114 13.216343 -19.680763 7.625941 -6.517200 28.299216 40.899927 -22.360676 10.330744 -28.661618 -34.225652 44.432706 -42.864010 -4.558509 15.437918 24.819744 1.352616 -27.942544 51.881796 
-0.629002 0.448250 0.960490 148.024538 0.748924 91.661485 -11.318926 -3.868788 -4.314187 -9.686261 -3.625719 32.683659 8.804461 35.833992 -31.099332 0.000000 -0.000000 0.000000 3.006572 -6.495741 -41.346736 4.179078 -7.274045 10.145012 -1.866652 -22.104465 44.950206 0.000000 -0.000000 0.000000 -4.084818 -1.580174 9.480332 15.840907 -4.103892 -8.576878 9.455888 -2.997968 -4.447930 -5.261978 -26.217684 11.243490 6.137648 -5.786216 -10.406141 31.453163 -16.284193 -26.670884 46.077409 -41.891530 -55.244644 14.498971 -25.999485 6.836596 -3.280296 27.621075 44.610538 -22.703151 12.048717 -29.300700 -35.710991 45.204407 -43.890171 -4.181720 18.368783 24.669940 2.507863 -28.075151 50.577891 
-0.611674 0.470427 0.964578 152.495271 0.528973 90.781643 -10.285318 -2.669289 -3.142183 -10.343890 -3.292002 35.316075 8.928026 35.528020 -26.185479 0.000000 -0.000000 0.000000 3.047455 -6.017516 -38.318717 3.524219 -8.163915 12.611394 -6.768754 -24.050809 34.298886 0.000000 -0.000000 0.000000 -4.330460 -1.956696 8.185171 15.828921 -5.091372 -8.230849 9.715914 -3.333344 -5.257503 -5.828294 -26.883238 12.133053 6.702401 -5.407324 -10.182549 31.955118 -18.151181 -26.431084 49.494102 -41.868820 -59.340691 13.975435 -30.439637 5.857567 1.964617 26.329272 49.225278 -23.034762 12.564106 -29.772843 -35.877193 46.215160 -44.545539 -3.600415 21.834308 25.415911 1.396675 -27.034364 50.484385 
-0.592489 0.493979 0.967906 156.695289 0.909299 89.896418 -8.780394 -2.071682 -3.502106 -9.252966 -0.650983 39.881954 9.592544 35.783480 -19.014874 0.000000 -0.000000 0.000000 3.924463 -5.719382 -34.835159 0.987461 -9.113683 13.060130 -9.378165 -26.208674 26.362596 0.000000 -0.000000 0.000000 -4.225984 -2.101102 6.499096 16.038440 -6.215566 -7.942754 10.133807 -3.876378 -5.567526 -6.364389 -27.630782 12.163672 6.356251 -5.366080 -9.747861 32.069596 -18.953199 -26.816298 50.789753 -42.097717 -61.116005 14.600193 -35.030933 5.498342 8.392339 26.722328 54.740492 -23.159187 12.531931 -30.357976 -37.606392 47.855374 -45.369115 -2.854590 23.413154 27.467518 -1.248052 -26.345973 53.040069 
-0.572691 0.518277 0.970445 160.260545 1.081886 88.986457 -7.190854 -0.898238 -4.239661 -6.067064 4.154434 43.780948 11.052282 36.840081 -9.543504 0.000000 -0.000000 0.000000 3.987073 -6.148203 -31.360381 -0.374500 -9.482548 14.377406 -9.523115 -27.025556 17.987578 0.000000 -0.000000 0.000000 -4.153033 -1.987887 4.751545 15.819643 -7.185106 -6.835205 10.248447 -4.696322 -7.241672 -6.909536 -27.490814 12.496966 5.785428 -6.413064 -8.644932 32.064919 -20.464225 -26.864843 51.784182 -42.068248 -62.125073 14.367391 -37.927281 8.220852 6.166929 22.839740 53.670688 -23.654480 12.898161 -30.800750 -37.606535 50.053231 -45.461530 -3.472295 23.240019 25.543014 -0.786118 -24.951452 48.967307 
